# xmcd
#
# Track frame offsets:
#	150
#	14306
#	27565
#	45218
#	74474
#	89790
#	121226
#	137452
#	149518
#	171959
#	187725
#	213054
#	229577
#	247218
#
# Disc length: 3554 seconds
#
# Revision: 0
# Processed by: cddbd v1.4PL0 Copyright (c) Steve Scherf et al.
# Submitted via: dBpowerAMP V4.0
#
DISCID=c10de00e
DTITLE=Blues Brothers Band - Live in Montreux
DYEAR=1989
DGENRE=Blues
TTITLE0=Hold on I'm Comin'
TTITLE1=In the Midnight Hour
TTITLE2=She Caught the Katy
TTITLE3=The Thrill is Gone
TTITLE4=Can't Turn You Loose
TTITLE5=Sweet Home Chicago
TTITLE6=Knock on Wood
TTITLE7=Raise Your Hand
TTITLE8=Peter Gun
TTITLE9=Soulfinger
TTITLE10=Hey, Bartender
TTITLE11=Soul Man
TTITLE12=Everybody Needs Somebody to Love
TTITLE13=Green Onions
EXTD=Jimmy
EXTT0=
EXTT1=
EXTT2=
EXTT3=
EXTT4=
EXTT5=
EXTT6=
EXTT7=
EXTT8=
EXTT9=
EXTT10=
EXTT11=
EXTT12=
EXTT13=
PLAYORDER=
